<svg id="eQe7cBNG5vU1" xmlns="http://www.w3.org/2000/svg" xmlns:xlink="http://www.w3.org/1999/xlink" viewBox="-0.01 0.3 136.1 116" shape-rendering="geometricPrecision" text-rendering="geometricPrecision"><g transform="translate(-82.01104-92.13092)"><g transform="matrix(.774651 0 0 0.89702 33.802446-61.237565)"><path d="M184.1184,170.97655c27.842538,0,11.624999,24.56495,20.347339,30.33821s33.253951-5.33021,33.297941,16.78239c0,21.24062,0,53.91755,0,70.04562c0,5.03028.20581,6.15172-2.1832,9.13798s-9.25743,2.7132-9.25743,2.7132h-150.69421c0,0-6.76287.23592-9.82976-1.88616s-3.2289-5.25393-3.3028-8.257c-.63657-25.86884.08067-83.90708.0739-103.81014-.00116-3.39832.50394-15.0641,15.79751-15.0641c0,0,0,0,0,0s.00001,0,.00001,0-.00001,0-.00001,0s.00001,0,.00001,0c11.61256,0,2.79503,0,0,0c0,0,0,0,0,0c27.8661,0,106.02553,0,105.7507,0v0Z" transform="translate(0 0.519305)" fill="#fff" stroke="#3f5787" stroke-width="0.6"/></g></g></svg>
